PathFileType	4	(X/Y/Z)	Patient4_TMGait_0pt7_01_left_46.trc.trc
DataRate	CameraRate	NumFrames	NumMarkers	Units	OrigDataRate	OrigDataStartFrame	OrigNumFrames
83.832335329341	83.832335329341	4	33	mm	83.832335329341	124	       141
Frame#	Time	Sacral			L.Shoulder			Chest			R.Shoulder			Neck			R.ASIS			L.ASIS			R.Thigh.Superior			R.Thigh.Lateral			R.Thigh.Inferior			R.Patella			L.Thigh.Superior			L.Thigh.Lateral			L.Thigh.Inferior			L.Patella			L.Shank.Superior			L.Shank.Lateral			L.Shank.Inferior			R.Shank.Superior			R.Shank.Lateral			R.Shank.Inferior			R.Heel			R.Midfoot.Superior			R.Midfoot.Lateral			R.Toe			L.Heel			L.Midfoot.Lateral			L.Midfoot.Superior			L.Toe			L.Elbow			L.Wrist			R.Elbow			R.Wrist			
		X1	Y1	Z1	X2	Y2	Z2	X3	Y3	Z3	X4	Y4	Z4	X5	Y5	Z5	X6	Y6	Z6	X7	Y7	Z7	X8	Y8	Z8	X9	Y9	Z9	X10	Y10	Z10	X11	Y11	Z11	X12	Y12	Z12	X13	Y13	Z13	X14	Y14	Z14	X15	Y15	Z15	X16	Y16	Z16	X17	Y17	Z17	X18	Y18	Z18	X19	Y19	Z19	X20	Y20	Z20	X21	Y21	Z21	X22	Y22	Z22	X23	Y23	Z23	X24	Y24	Z24	X25	Y25	Z25	X26	Y26	Z26	X27	Y27	Z27	X28	Y28	Z28	X29	Y29	Z29	X30	Y30	Z30	X31	Y31	Z31	X32	Y32	Z32	X33	Y33	Z33	

124	54.817214285714	852.020471234171	1006.189449858748	529.494040322733	1030.505193120818	1419.257999530618	328.380007664450	1150.946314562410	1339.134709773611	472.222157474216	1100.404857403992	1422.752719143765	652.773134455553	1060.175922631189	1478.346565554342	481.303014997779	1078.486044954897	928.660658248947	634.022607076040	1050.799835313137	939.448845626360	358.566798206735	1060.197667511797	715.216608982251	610.172046079721	946.556243305066	630.513697306728	671.568484584993	1000.486120262358	560.296696060822	592.048534507736	975.845541330087	478.787151942581	595.232931934196	1122.985983161132	767.379641160192	393.935367892280	1078.848788438927	636.324287583877	313.242783234855	1184.345833121466	581.015716304654	373.980189241706	1211.670518507649	514.545412630777	370.861465867916	1195.356358894372	440.956260768014	359.409676016231	1127.736804665239	311.839835983020	309.444556238914	1214.765647918313	212.007166912153	362.233641472118	935.003179877769	397.528204530411	601.033766890986	851.709132236315	303.882948851889	663.680806267132	879.196768533537	205.520574240160	595.954711773905	727.395718555396	48.104134529286	565.295459828760	901.922912627725	96.531124609840	596.030944906533	812.973927141621	37.652274368605	636.215169936275	1021.009990541308	39.162481386893	617.823543189222	1128.183616998782	39.592939779439	400.479477408773	1201.113554825142	41.693500513569	319.277800690954	1276.930677234620	112.041015118107	341.696600482673	1408.034635717851	73.571868800581	313.384556943888	847.520466219437	1119.196500391960	242.331722764758	785.216286999275	865.873179440008	274.480658166894	1286.235445217277	1145.476843407531	740.241295006514	1477.391722411805	1248.621602793840	612.776427047868	
125	54.829142857143	853.301530498383	1004.808428592037	526.526580372249	1030.426389612230	1418.604197654673	326.531506209294	1150.820413548309	1338.980511341606	470.721765934057	1099.121180542766	1421.876820114841	651.347511690546	1059.470685016138	1477.690596476773	479.569585209238	1079.755322987629	927.597084221625	632.103899418830	1053.008026809505	938.208763659511	356.730542964824	1060.975987180938	713.945465543928	608.737625687677	946.428947658441	629.949844687579	669.912317247685	1000.191652491964	559.072103748564	590.858662554827	974.374157194549	477.407596738170	593.888869393173	1125.007854943413	765.032896096789	392.087777735069	1078.571232207178	633.771893267172	313.415937654903	1184.327498960690	578.373569527485	373.804960794099	1210.320230692963	511.140662679060	371.668264013675	1193.412150685522	437.413281836903	360.211103169971	1124.060421663974	309.073179563521	310.892393603084	1209.302732955611	208.257434056973	364.233112093985	932.398706655229	396.481901479206	600.017600079464	847.469911548547	304.522688009815	663.027412148334	873.245122699532	205.417401916666	595.797888832632	719.209843074194	49.552795913929	565.719795121999	894.060913793884	96.699851134672	596.313122331691	804.778982009480	38.093461387719	636.492301703409	1012.724922156935	38.911627966264	617.878718549046	1119.026852092493	38.682011666189	402.808603372259	1191.848474365137	39.464432211632	321.342991277998	1269.707074995442	107.265325130549	344.360573848335	1399.965328563980	65.172160619476	315.384463267053	846.619577391691	1119.627215405052	240.247211299279	783.472371218562	866.452561368847	274.043862654894	1285.618673082852	1144.789450147752	738.532214260940	1474.642153699127	1251.655235849423	611.070670460380	
126	54.841071428571	854.556190407852	1003.901816861412	523.587465902646	1030.551823871944	1418.212518347528	324.531316911081	1150.890291388794	1339.064864123239	469.077780192338	1098.147392477046	1421.350188597019	649.783589339667	1059.058948280459	1477.352274604309	477.627452553532	1081.032001082107	926.738534226069	629.989389114290	1055.059655496286	937.457808265475	354.754783717821	1061.824829322958	712.922501447237	607.155593670910	946.494737709397	629.584522265471	668.127461799712	1000.178769202839	558.049770706777	589.557102954304	973.245972192401	476.154999402762	592.465993524303	1126.961263080064	763.369851918185	390.283195620699	1078.655593572924	632.124527438811	313.259145344791	1184.423917230330	576.491514253736	373.569090405861	1209.097612350315	508.457050231573	372.255084513664	1191.574022551862	434.543389994255	360.734178135282	1120.594352111606	307.100101784166	311.625073772641	1203.675520119424	205.172955398900	365.764443249437	930.103429327312	395.625936374681	598.981501150218	843.445288245748	305.456892683745	662.357229216968	867.491229318465	205.576724037581	595.714517603105	711.107003992383	51.469475627320	566.240889157928	886.396610427531	96.998946960088	596.708379177703	796.653832905248	38.724308957146	636.806729407206	1004.481722356302	38.648353672555	617.928471853355	1109.588716189071	38.119746812928	404.338524968508	1182.467224075659	37.841931452024	322.781113415975	1262.061554505800	103.379019575183	346.564934351208	1391.632102399157	58.108111227364	317.219157948115	846.521063427651	1119.835041713811	237.961944320225	782.937101632557	866.683237314635	273.197281216172	1284.124834004598	1143.543844959927	737.399115125924	1471.604754890686	1253.323942071018	610.050934539338	
127	54.853000000000	855.765265489048	1003.535773846453	520.708745801988	1030.888631235157	1418.145126691436	322.419230664752	1151.170964939123	1339.412736753320	467.297969194072	1097.551046627950	1421.206616472393	648.090783979254	1058.968827823101	1477.368851574186	475.524708639275	1082.271895677411	926.153998111947	627.683507728669	1056.907672579881	937.239506458987	352.616880090273	1062.650660853996	712.217483929472	605.410045176002	946.702150517410	629.470885252552	666.241059023059	1000.391385939072	557.298021808413	588.152883403864	972.455110347897	475.060073586481	591.036263717044	1128.788994012262	762.478932824613	388.551228600462	1079.121685844937	631.440038138214	312.699791887755	1184.596368636536	575.392230942757	373.182060947239	1207.983557534254	506.535338371445	372.493742404161	1189.842457619974	432.394432052406	360.916509965008	1117.386847530035	305.926768113848	311.614770965825	1198.004379940643	202.825209779986	366.787079211592	928.093502645179	395.011503330960	597.975809098286	839.617939206263	306.727093907700	661.698145596984	861.946827813178	206.048460315419	595.729532019256	703.114671626316	53.913984104358	566.857773826379	878.955874518861	97.439033052208	597.221664471509	788.613228103570	39.586604451818	637.159175417843	996.284149423859	38.380417697694	617.967059287304	1100.191030300083	37.853519816100	405.153412821034	1173.231077235719	36.795551335090	323.627948683598	1254.181456050552	100.486062721427	348.216711317089	1383.238146330025	52.641997537290	318.728954333761	847.223104372691	1119.889380089206	235.477906444486	783.648290493394	866.615200550419	271.903543216793	1281.753776401841	1141.767711033079	736.843534257836	1468.360764509482	1253.616992602172	609.725986023202	
